<svg enable-background="new 0 0 238.4 250" viewBox="0 0 238.4 250" xmlns="http://www.w3.org/2000/svg"><path d="m112.3 65c-2.6 11.9-10.7 6.1-12.2-1.2-1.1-5.5-6.5-16.2-18.4-21.1v160.4c12.1 9.7 22.2 17.4 25.6 24.2 4.7-13.9 22-31.2 41-51.3v-152.8c-19.7 10.9-34 33-36 41.8z" fill="#fff"/><path d="m82.7 203.8v-160.7c-4-1.8-8.7-2.9-14.3-2.9-15.4 0-43.6 17-44.2 71.2-.5 44.4 33.5 72.5 58.5 92.4z" fill="#029"/><path d="m171.2 16.8c-8.2 0-16 2.6-23.1 6.5v152.9c27.7-29.3 59.2-64.8 60.5-105.2.9-24.9-8.9-54.2-37.4-54.2z" fill="#e23"/><path d="m181.4 0c-25.5 0-55.7 18.8-74 50.2-4.9-11.3-22.5-23.7-43.4-23.7-16.8 0-64 21-64 88.9 0 87.6 88.6 105.6 106.5 132.8 1.2 1.9 5.2 3.3 6.7-1.2 14.3-42.2 125.1-89.8 125.1-175.7.1-48.1-31.4-71.3-56.9-71.3zm-157.2 111.4c.6-54.3 28.8-71.2 44.2-71.2 21.5 0 30.3 16.4 31.8 23.6 1.4 7.2 9.6 13 12.2 1.2 2.6-11.9 27.9-48.1 58.9-48.1 28.4 0 38.3 29.3 37.4 54.2-2.3 67.9-89.7 122-101.3 156.2-10.3-20.7-83.9-50.7-83.2-115.9z"/></svg>